<svg xmlns="http://www.w3.org/2000/svg" viewBox="0 0 400 561"><defs><linearGradient id="a" x1="50%" x2="50%" y1="0%" y2="30.677%"><stop stop-color="#4EA0FE" offset="0%"/><stop stop-color="#B0D0FF" offset="100%"/></linearGradient></defs><g fill="none" fill-rule="evenodd"><path fill="url(#a)" d="M0 0h400v560H0z"/><path fill="#97e028" d="M0 179.727c57.076-5.646 117.076 9.4 180 45.136l39.545.638c46.71-27.265 106.86-43.036 180.455-47.31V560H0V179.727z"/><path fill="#F4EE9F" d="M180 225h40c41.164 20.672 51.216 72.595 30.156 155.77C229.386 440.4 279.333 500.477 400 561H14.254c27.417-85.992 65.493-151.926 114.23-197.8C177.22 317.323 194.394 271.257 180 225z"/><path fill="#4A4A4A" d="M180 225h40c40 29.68 46.667 79.93 20 150.75S253.333 507.986 360 560H40c17.93-88.125 51.263-155.125 100-201s62.07-90.542 40-134z"/><path fill="#FFF" fill-rule="nonzero" d="M176.1 442c1.948-18 5.705-33.25 10.443-47h-17.636c-7.053 15.907-12.83 31.574-17.334 47H176.1zm-1.43 33c.58 31.536 13.04 59.45 37.384 83.742l-69.514.235c-4.248-27.11-3.822-55.102 1.28-83.977h30.85zm20.203-101c.795-1.79 1.6-3.565 2.415-5.326 4.242-9.17 8.463-18.82 12.237-28.674h-11.732c-6.92 11.45-13.22 22.783-18.905 34h15.985zM213 330.476c3.735-10.802 6.782-21.744 8.595-32.476h-8.325c-2.312 9.86-5.797 20.25-10.403 31H213v1.476zM222.82 289c.946-9.317.817-18.396-.76-27h-5.898c.9 8.275.523 17.335-1.083 27h7.74zm-2.12-33c-1.623-5.965-4.028-11.66-7.348-17h-4.182c2.85 5.09 4.87 10.787 6.085 17h5.446zm-9.337-20c-2.794-3.957-6.133-7.698-10.075-11.186h-4.2c4.068 3.216 7.48 6.964 10.26 11.186h4.015z"/></g></svg>